<svg xmlns="http://www.w3.org/2000/svg" viewBox="0 0 1920 1080" preserveAspectRatio="xMidYMid slice">
  <defs>
    <radialGradient id="planetGlow" cx="50%" cy="50%" r="50%">
      <stop offset="0%" stop-color="#8fe8ff" stop-opacity="0.28" />
      <stop offset="48%" stop-color="#887bff" stop-opacity="0.2" />
      <stop offset="78%" stop-color="#ca78ff" stop-opacity="0.1" />
      <stop offset="100%" stop-color="#ca78ff" stop-opacity="0" />
    </radialGradient>
    <radialGradient id="planetBody" cx="30%" cy="24%" r="82%">
      <stop offset="0%" stop-color="#a7f4ff" />
      <stop offset="28%" stop-color="#61d7f8" />
      <stop offset="62%" stop-color="#447fdc" />
      <stop offset="100%" stop-color="#242c78" />
    </radialGradient>
    <linearGradient id="oceanBand" x1="0" y1="0" x2="1" y2="1">
      <stop offset="0%" stop-color="#c7fbff" stop-opacity="0.84" />
      <stop offset="46%" stop-color="#73dff5" stop-opacity="0.58" />
      <stop offset="100%" stop-color="#7c7ce8" stop-opacity="0.18" />
    </linearGradient>
    <linearGradient id="nightLimb" x1="0" y1="0" x2="1" y2="0">
      <stop offset="42%" stop-color="#20245f" stop-opacity="0" />
      <stop offset="100%" stop-color="#171943" stop-opacity="0.78" />
    </linearGradient>
    <linearGradient id="ringLight" x1="0" y1="0" x2="1" y2="0">
      <stop offset="0%" stop-color="#74dcff" stop-opacity="0.34" />
      <stop offset="30%" stop-color="#bceeff" stop-opacity="0.78" />
      <stop offset="62%" stop-color="#d99cff" stop-opacity="0.72" />
      <stop offset="100%" stop-color="#ff9b86" stop-opacity="0.32" />
    </linearGradient>
    <clipPath id="planetDisc">
      <circle cx="1320" cy="420" r="218" />
    </clipPath>
  </defs>

  <ellipse cx="1320" cy="420" rx="390" ry="360" fill="url(#planetGlow)" />

  <g transform="rotate(-16 1320 420)" fill="none">
    <ellipse cx="1320" cy="420" rx="370" ry="106" stroke="#8d75dc" stroke-width="34" opacity="0.12" />
    <ellipse cx="1320" cy="420" rx="356" ry="100" stroke="url(#ringLight)" stroke-width="18" opacity="0.66" />
    <ellipse cx="1320" cy="420" rx="348" ry="94" stroke="#f3c4ff" stroke-width="4" opacity="0.48" />
  </g>

  <circle cx="1320" cy="420" r="218" fill="url(#planetBody)" />
  <g clip-path="url(#planetDisc)">
    <path
      d="M1092 332 C1170 280 1254 288 1318 322 C1380 355 1452 356 1538 310 L1548 378 C1470 424 1388 422 1324 390 C1244 350 1172 358 1090 414 Z"
      fill="url(#oceanBand)"
      opacity="0.72"
    />
    <path
      d="M1088 470 C1160 430 1236 438 1302 476 C1370 515 1458 516 1544 466 L1552 532 C1466 580 1372 578 1294 536 C1226 500 1154 504 1084 548 Z"
      fill="#2b52ad"
      opacity="0.42"
    />
    <ellipse cx="1250" cy="340" rx="70" ry="23" transform="rotate(-14 1250 340)" fill="#d1fbff" opacity="0.34" />
    <ellipse cx="1395" cy="486" rx="82" ry="29" transform="rotate(-12 1395 486)" fill="#172867" opacity="0.28" />
    <ellipse cx="1440" cy="350" rx="34" ry="18" transform="rotate(18 1440 350)" fill="#9bdff7" opacity="0.22" />
    <circle cx="1236" cy="290" r="25" fill="#c5f8ff" opacity="0.28" />
    <circle cx="1243" cy="283" r="10" fill="#ffffff" opacity="0.2" />
    <circle cx="1432" cy="520" r="31" fill="#18205d" opacity="0.3" />
    <circle cx="1424" cy="511" r="11" fill="#7a85db" opacity="0.2" />
    <rect x="1100" y="196" width="450" height="450" fill="url(#nightLimb)" />
  </g>

  <circle cx="1320" cy="420" r="216" fill="none" stroke="#b6f3ff" stroke-width="4" opacity="0.46" />
  <circle cx="1320" cy="420" r="221" fill="none" stroke="#a983ff" stroke-width="3" opacity="0.2" />

  <g transform="rotate(-16 1320 420)" fill="none" stroke-linecap="round">
    <path d="M980 420 A340 95 0 0 0 1660 420" stroke="#7e65ca" stroke-width="30" opacity="0.18" />
    <path d="M972 420 A348 96 0 0 0 1668 420" stroke="url(#ringLight)" stroke-width="16" opacity="0.9" />
    <path d="M982 420 A338 90 0 0 0 1658 420" stroke="#ffd0f0" stroke-width="4" opacity="0.62" />
  </g>

  <circle cx="1238" cy="326" r="18" fill="#d4fbff" opacity="0.18" />
</svg>
